<svg style="display: none" xmlns="http://www.w3.org/2000/svg">

  <symbol viewBox="0 0 26 22" id="icon-favourite">
    <path d="M12.96 8.23C13.2 7.1 14.54 2 18.46 2c2.26 0 4.7 1.55 4.7 5 0 3.91-3.7 8.47-10.2 12.63C6.46 15.47 2.76 10.91 2.76 7c0-3.48 2.41-5 4.67-5 4 0 5.25 5.12 5.53 6.23ZM.7 7c0 4.07 3.13 9.48 12.25 15C22.08 16.48 25.2 11.07 25.2 7c0-7.96-9.84-9.03-12.24-3.73C10.57-2 .7-1 .7 7Z" />
  </symbol>

  <symbol viewBox="0 0 25 24" id="icon-profile">
    <path d="M21.66 18.1c-3.51-.8-6.78-1.5-5.2-4.42C21.28 4.77 17.74 0 12.66 0c-5.2 0-8.64 4.95-3.81 13.68 1.63 2.94-1.76 3.64-5.2 4.42C.52 18.8.4 20.33.41 23v1H24.9v-.97c.02-2.69-.09-4.22-3.23-4.93Z" />
  </symbol>

  <symbol viewBox="0 0 31 23" id="icon-cart">
    <path d="m30.71 0-.94 2.5H27.3l-4.44 15H6L.1 3.75h21.45l-.72 2.5H3.93L7.69 15h13.3l4.38-15h5.35ZM10.94 18.75a1.9 1.9 0 0 0-1.91 1.88 1.9 1.9 0 0 0 1.91 1.87 1.9 1.9 0 0 0 1.92-1.88 1.9 1.9 0 0 0-1.92-1.87Zm6.38 0a1.9 1.9 0 0 0-1.91 1.88 1.9 1.9 0 0 0 1.91 1.87 1.9 1.9 0 0 0 1.91-1.88 1.9 1.9 0 0 0-1.91-1.87Z" />
  </symbol>

  <symbol viewBox="0 0 18 22" id="icon-stores">
   <path d="M6.83 13.34a.5.5 0 0 0-.5.5v5.86a.5.5 0 0 1-.5.5H1.5a.5.5 0 0 1-.5-.5V8.09a.5.5 0 0 1 .17-.38l7.5-6.43a.5.5 0 0 1 .66 0l7.5 6.43c.1.1.17.23.17.38V19.7a.5.5 0 0 1-.5.5h-4.33a.5.5 0 0 1-.5-.5v-5.86a.5.5 0 0 0-.5-.5H6.83Z" stroke-width="2" stroke-linecap="round" stroke-linejoin="round"/>
  </symbol>

  <symbol viewBox="0 0 17 17" id="icon-stocks">
    <path d="M6.14209 1.98291C6.73682 2.65967 7.03418 3.57568 7.03418 4.73096C7.03418 5.88623 6.73682 6.80566 6.14209 7.48926C5.54736 8.17285 4.75098 8.51465 3.75293 8.51465C2.75488 8.51465 1.9585 8.17285 1.36377 7.48926C0.775879 6.80566 0.481934 5.88623 0.481934 4.73096C0.481934 3.57568 0.775879 2.65967 1.36377 1.98291C1.9585 1.29932 2.75488 0.95752 3.75293 0.95752C4.75098 0.95752 5.54736 1.29932 6.14209 1.98291ZM3.75293 6.90479C4.13574 6.90479 4.43311 6.71338 4.64502 6.33057C4.86377 5.94092 4.97314 5.40771 4.97314 4.73096C4.97314 4.04736 4.86377 3.51416 4.64502 3.13135C4.43311 2.7417 4.13574 2.54688 3.75293 2.54688C3.37695 2.54688 3.07959 2.7417 2.86084 3.13135C2.64893 3.51416 2.54297 4.04736 2.54297 4.73096C2.54297 5.40771 2.64893 5.94092 2.86084 6.33057C3.07959 6.71338 3.37695 6.90479 3.75293 6.90479ZM3.95801 16H1.72266L7.45459 8.15576L12.5405 1.20361H14.7554L9.17725 8.84277L3.95801 16ZM15.1143 9.65283C15.709 10.3364 16.0063 11.2559 16.0063 12.4111C16.0063 13.5664 15.709 14.4858 15.1143 15.1694C14.5195 15.8462 13.7231 16.1846 12.7251 16.1846C11.7271 16.1846 10.9307 15.8462 10.3359 15.1694C9.74805 14.4858 9.4541 13.5664 9.4541 12.4111C9.4541 11.2559 9.74805 10.3364 10.3359 9.65283C10.9307 8.96924 11.7271 8.62744 12.7251 8.62744C13.7231 8.62744 14.5195 8.96924 15.1143 9.65283ZM11.833 14.0005C12.0518 14.3901 12.3491 14.585 12.7251 14.585C13.1011 14.585 13.3984 14.3901 13.6172 14.0005C13.8359 13.6108 13.9453 13.0776 13.9453 12.4009C13.9453 11.7241 13.8359 11.1909 13.6172 10.8013C13.3984 10.4116 13.1011 10.2168 12.7251 10.2168C12.3491 10.2168 12.0518 10.4116 11.833 10.8013C11.6211 11.1909 11.5151 11.7241 11.5151 12.4009C11.5151 13.0776 11.6211 13.6108 11.833 14.0005Z"/>
  </symbol>

  <symbol viewBox="0 0 18 17" id="icon-delivery-payment">
    <path d="M11.17 3.14h5.9v12.02c0 .52-.46.84-.97.84H1.9c-.51 0-.9-.4-.9-.92V3.14h5.82M11.39 3.14h5.63c.04 0 .07-.03.04-.06L14.96 1H3.1l-2.1 2.08c-.03.03 0 .06.04.06H6.7" stroke-width="1.5" stroke-miterlimit="10"/>
    <path d="M11.71 3.14 10.78 1h-3.4L6.36 3.14M11.71 3.14v4.29l-2.6-1.5-2.75 1.5V3.14M10.99 11.71H7.12c-.44 0-.76-.43-.76-.92v-.3c0-.53.36-.92.76-.92h3.83c.44 0 .76.44.76.93v.29c.04.53-.32.92-.72.92Z" stroke-width="1.5" stroke-miterlimit="10"/>
  </symbol>

  <symbol viewBox="0 0 30 30" id="icon-instargram">
    <g clip-path="url(#clip0_59_207)">
    <path d="M15.0051 7.29761C10.7514 7.29761 7.30762 10.7451 7.30762 14.9951C7.30762 19.2489 10.7551 22.6926 15.0051 22.6926C19.2589 22.6926 22.7026 19.2451 22.7026 14.9951C22.7026 10.7414 19.2551 7.29761 15.0051 7.29761ZM15.0051 19.9914C12.2439 19.9914 10.0089 17.7551 10.0089 14.9951C10.0089 12.2351 12.2451 9.99886 15.0051 9.99886C17.7651 9.99886 20.0014 12.2351 20.0014 14.9951C20.0026 17.7551 17.7664 19.9914 15.0051 19.9914Z" fill="#2F3035"/>
    <path d="M21.1853 0.095454C18.4253 -0.033296 11.589 -0.027046 8.82653 0.095454C6.39903 0.209204 4.25778 0.795454 2.53153 2.5217C-0.353466 5.4067 0.0152841 9.29421 0.0152841 14.9955C0.0152841 20.8305 -0.309716 24.628 2.53153 27.4692C5.42778 30.3642 9.37153 29.9855 15.0053 29.9855C20.7853 29.9855 22.7803 29.9892 24.824 29.198C27.6028 28.1192 29.7003 25.6355 29.9053 21.1742C30.0353 18.413 30.0278 11.578 29.9053 8.81546C29.6578 3.5492 26.8315 0.355454 21.1853 0.095454ZM25.554 25.5605C23.6628 27.4517 21.039 27.283 14.969 27.283C8.71903 27.283 6.21278 27.3755 4.38403 25.5417C2.27778 23.4455 2.65903 20.0792 2.65903 14.9755C2.65903 8.0692 1.95028 3.09545 8.88153 2.74045C10.474 2.6842 10.9428 2.66545 14.9515 2.66545L15.0078 2.70295C21.669 2.70295 26.8953 2.00545 27.209 8.93545C27.2803 10.5167 27.2965 10.9917 27.2965 14.9942C27.2953 21.1717 27.4128 23.693 25.554 25.5605Z" fill="#2F3035"/>
    <path d="M23.0077 8.79257C24.0012 8.79257 24.8065 7.98724 24.8065 6.99382C24.8065 6.0004 24.0012 5.19507 23.0077 5.19507C22.0143 5.19507 21.209 6.0004 21.209 6.99382C21.209 7.98724 22.0143 8.79257 23.0077 8.79257Z" fill="#2F3035"/>
    </g>
    <defs>
    <clipPath id="clip0_59_207">
    <rect width="30" height="30" fill="white"/>
    </clipPath>
    </defs>
  </symbol>

  <symbol viewBox="0 0 30 18" id="icon-vk">
    <path d="M24.8938 10.285C24.4088 9.6725 24.5475 9.4 24.8938 8.8525C24.9 8.84625 28.9037 3.31375 29.3162 1.4375L29.3188 1.43625C29.5238 0.7525 29.3188 0.25 28.3275 0.25H25.0475C24.2125 0.25 23.8275 0.68125 23.6213 1.16375C23.6213 1.16375 21.9513 5.16125 19.5887 7.7525C18.8263 8.50125 18.4738 8.74125 18.0575 8.74125C17.8525 8.74125 17.5338 8.50125 17.5338 7.8175V1.43625C17.5338 0.61625 17.3 0.25 16.6087 0.25H11.4513C10.9275 0.25 10.6163 0.6325 10.6163 0.98875C10.6163 1.76625 11.7975 1.945 11.92 4.1325V8.87875C11.92 9.91875 11.7312 10.11 11.3125 10.11C10.1975 10.11 7.49125 6.09625 5.8875 1.5025C5.56375 0.61125 5.2475 0.25125 4.40625 0.25125H1.125C0.18875 0.25125 0 0.6825 0 1.165C0 2.0175 1.115 6.25625 5.185 11.8562C7.8975 15.6788 11.7175 17.75 15.1925 17.75C17.2812 17.75 17.5363 17.29 17.5363 16.4988C17.5363 12.8463 17.3475 12.5012 18.3937 12.5012C18.8787 12.5012 19.7137 12.7413 21.6637 14.585C23.8925 16.7712 24.2588 17.75 25.5063 17.75H28.7862C29.7212 17.75 30.195 17.29 29.9225 16.3825C29.2987 14.4738 25.0838 10.5475 24.8938 10.285Z" fill="#2F3035"/>
  </symbol>

  <symbol viewBox="0 0 30 30" id="icon-facebook">
    <g clip-path="url(#clip0_59_191)">
    <path d="M17.4188 29.8047C17.2938 29.8251 17.1684 29.8438 17.0425 29.861C17.1684 29.8438 17.2938 29.8251 17.4188 29.8047Z" fill="#2F3035"/>
    <path d="M17.7188 29.7534C17.659 29.7644 17.5993 29.7745 17.5396 29.7848C17.5993 29.7745 17.659 29.7644 17.7188 29.7534Z" fill="#2F3035"/>
    <path d="M16.7072 29.9028C16.5609 29.9193 16.4137 29.934 16.2661 29.9463C16.4137 29.934 16.5609 29.9193 16.7072 29.9028Z" fill="#2F3035"/>
    <path d="M16.9952 29.8674C16.9249 29.8768 16.8542 29.8855 16.7837 29.8938C16.8542 29.8855 16.9249 29.8768 16.9952 29.8674Z" fill="#2F3035"/>
    <path d="M18.1271 29.6724C18.0745 29.6836 18.0216 29.6948 17.9688 29.7056C18.0216 29.6948 18.0745 29.6836 18.1271 29.6724Z" fill="#2F3035"/>
    <path d="M19.1404 29.4207C19.0978 29.4328 19.0553 29.4442 19.0127 29.4561C19.0553 29.4442 19.0978 29.4328 19.1404 29.4207Z" fill="#2F3035"/>
    <path d="M18.834 29.5044C18.7878 29.5165 18.7413 29.5289 18.6948 29.5406C18.7413 29.5289 18.7878 29.5168 18.834 29.5044Z" fill="#2F3035"/>
    <path d="M18.433 29.6047C18.384 29.6162 18.3346 29.6269 18.2852 29.6379C18.3346 29.6269 18.384 29.6162 18.433 29.6047Z" fill="#2F3035"/>
    <path d="M16.2615 29.9468C16.1826 29.9534 16.1036 29.9594 16.0244 29.9646C16.1036 29.9594 16.1826 29.9534 16.2615 29.9468Z" fill="#2F3035"/>
    <path d="M30 15C30 6.717 23.283 0 15 0C6.717 0 0 6.717 0 15C0 23.283 6.717 30 15 30C15.0881 30 15.1758 29.9982 15.2637 29.9966V18.3197H12.041V14.564H15.2637V11.8002C15.2637 8.59497 17.2204 6.85043 20.0796 6.85043C21.4487 6.85043 22.6257 6.95251 22.9688 6.99806V10.348H20.9972C19.4417 10.348 19.1405 11.0873 19.1405 12.1719V14.564H22.8598L22.375 18.3197H19.1405V29.4205C25.4102 27.6231 30 21.8468 30 15Z" fill="#2F3035"/>
    <path d="M15.9911 29.9666C15.835 29.9766 15.6782 29.9846 15.521 29.9899C15.6782 29.9846 15.835 29.9766 15.9911 29.9666Z" fill="#2F3035"/>
    <path d="M15.5127 29.9905C15.4298 29.9932 15.3468 29.9953 15.2637 29.9967C15.3468 29.9953 15.4298 29.9932 15.5127 29.9905Z" fill="#2F3035"/>
    </g>
    <defs>
    <clipPath id="clip0_59_191">
    <rect width="30" height="30" fill="white"/>
    </clipPath>
    </defs>
  </symbol>

  <symbol viewBox="0 0 30 30" id="icon-youtube">
    <g clip-path="url(#clip0_59_204)">
    <path d="M13.1318 17.8101L18.0111 14.9999L13.1318 12.1897V17.8101Z" fill="#2F3035"/>
    <path d="M15 0C6.717 0 0 6.717 0 15C0 23.283 6.717 30 15 30C23.283 30 30 23.283 30 15C30 6.717 23.283 0 15 0ZM24.3727 15.0153C24.3727 15.0153 24.3727 18.0574 23.9868 19.5243C23.7705 20.3272 23.1374 20.9603 22.3345 21.1764C20.8676 21.5625 15 21.5625 15 21.5625C15 21.5625 9.14772 21.5625 7.66548 21.161C6.86256 20.945 6.22948 20.3117 6.01318 19.5087C5.62706 18.0574 5.62706 15 5.62706 15C5.62706 15 5.62706 11.9582 6.01318 10.4913C6.22925 9.68834 6.8779 9.03969 7.66548 8.82362C9.13239 8.4375 15 8.4375 15 8.4375C15 8.4375 20.8676 8.4375 22.3345 8.83896C23.1374 9.05502 23.7705 9.68834 23.9868 10.4913C24.3883 11.9582 24.3727 15.0153 24.3727 15.0153Z" fill="#2F3035"/>
    </g>
    <defs>
    <clipPath id="clip0_59_204">
    <rect width="30" height="30" fill="white"/>
    </clipPath>
    </defs>
  </symbol>

  <symbol viewBox="0 0 6 9" id="icon-arrow">
    <path d="M0.228824 7.88793C-0.0650262 8.13366 -0.0762933 8.54196 0.203658 8.79989C0.48361 9.05782 0.948767 9.06771 1.24262 8.82198C1.24262 8.82198 5.77719 4.97116 5.78955 4.95998C6.07934 4.69388 6.06851 4.27195 5.76535 4.01758L1.24266 0.178763C0.949277 -0.0673988 0.484101 -0.0581917 0.203658 0.199327C-0.0767845 0.456847 -0.0662956 0.865161 0.227086 1.11132L3.71295 4.12125C3.94389 4.32066 3.94393 4.67861 3.71304 4.87807L0.228824 7.88793Z" fill="#C4C4C4"/>
  </symbol>

  <symbol viewBox="0 0 20 27" id="icon-histogram">
<rect x="16" y="15.2432" width="4" height="11.7255" rx="2"/>
<rect x="8" width="4" height="26.9687" rx="2"/>
<rect y="9.38037" width="4" height="17.5883" rx="2"/>
</symbol>

<symbol viewBox="0 0 23 22" id="icon-star">
<path d="M11.4625 0.472412L14.0528 8.41872H22.4353L15.6537 13.3298L18.2441 21.2761L11.4625 16.365L4.68092 21.2761L7.27125 13.3298L0.489674 8.41872H8.87216L11.4625 0.472412Z"/>
</symbol>



</svg>
